<svg data-name="レイヤー 2" xmlns="http://www.w3.org/2000/svg" viewBox="0 0 40.62 39.92"><g data-name="基本表示 Aタイプ（カラー）"><path d="M25.24 19.51c-.28-.36-.65-.35-.91.02l-5.96 8.31c-.29.41-.2.78.24 1.01L39.9 39.83c.59.3.95-.14.55-.66L25.24 19.52zm-14.95-6.17l6.6-3.3c.39-.2.49-.64.22-.98L10.32.33c-.31-.4-.79-.23-.79.27v12.28c0 .46.34.67.75.47m14.01 4.74c.26.33.67.33.91-.02L37.63.74c.37-.52.02-.94-.55-.65L18.56 9.35c-.46.23-.55.62-.23 1.03l5.97 7.71zm-7.28 10.07l-6.71-3.48c-.42-.22-.76 0-.76.46V38.5c0 .53.52.7.83.26l6.89-9.61a.67.67 0 00-.24-1.01" fill="#141e50"/><path d="M8.65 14.3l-8.3 4.16c-.46.23-.46.69 0 .93l8.31 4.3c.42.22.76 0 .76-.46v-8.45c0-.46-.34-.67-.75-.47" fill="#b49664"/></g></svg>