<?xml version="1.0" encoding="UTF-8"?>
<svg id="_レイヤー_2" data-name="レイヤー 2" xmlns="http://www.w3.org/2000/svg" viewBox="0 0 40.62 39.92">
  <defs>
    <style>
      .cls-1 {
        fill: #141e50;
      }

      .cls-1, .cls-2 {
        stroke-width: 0px;
      }

      .cls-2 {
        fill: #b49664;
      }
    </style>
  </defs>
  <g id="_基本表示_Aタイプ_カラー_" data-name="基本表示 Aタイプ（カラー）">
    <g>
      <path class="cls-1" d="M25.24,19.51c-.28-.36-.65-.35-.91.02l-5.96,8.31c-.29.41-.2.78.24,1.01l21.29,10.98c.59.3.95-.14.55-.66l-15.21-19.65ZM10.29,13.34l6.6-3.3c.39-.2.49-.64.22-.98L10.32.33c-.31-.4-.79-.23-.79.27v12.28c0,.46.34.67.75.47M24.29,18.09c.26.33.67.33.91-.02L37.63.74c.37-.52.02-.94-.55-.65l-18.52,9.26c-.46.23-.55.62-.23,1.03l5.97,7.71ZM17.01,28.16l-6.71-3.48c-.42-.22-.76,0-.76.46v13.36c0,.53.52.7.83.26l6.89-9.61c.25-.35.15-.81-.24-1.01"/>
      <path class="cls-2" d="M8.65,14.3L.35,18.46c-.46.23-.46.69,0,.93l8.31,4.3c.42.22.76,0,.76-.46v-8.45c0-.46-.34-.67-.75-.47"/>
    </g>
  </g>
</svg>